<svg xmlns="http://www.w3.org/2000/svg" viewBox="0 0 64 64" role="img" aria-hidden="true">
  <path d="M17 7h20l12 12v30a8 8 0 0 1-8 8H17a8 8 0 0 1-8-8V15a8 8 0 0 1 8-8z" fill="#f4f7fb"/>
  <path d="M37 7v9a4 4 0 0 0 4 4h8" fill="#dbe4ef"/>
  <path d="M37 7v9a4 4 0 0 0 4 4h8" stroke="#c7d3df" stroke-linejoin="round" stroke-width="2"/>
  <path d="M17 7h20l12 12v30a8 8 0 0 1-8 8H17a8 8 0 0 1-8-8V15a8 8 0 0 1 8-8z" fill="none" stroke="#9fb3c8" stroke-width="2"/>
  <path d="M18 31h28M18 39h28M18 47h18" stroke="#90a5bb" stroke-linecap="round" stroke-width="3"/>
</svg>
