<svg xmlns="http://www.w3.org/2000/svg" viewBox="0 0 64 64" role="img" aria-hidden="true">
  <path d="M17 7h20l12 12v30a8 8 0 0 1-8 8H17a8 8 0 0 1-8-8V15a8 8 0 0 1 8-8z" fill="#fff2f1" stroke="#db6b63" stroke-width="2"/>
  <path d="M37 7v9a4 4 0 0 0 4 4h8" fill="#ffd8d4"/>
  <rect x="14" y="34" width="36" height="13" rx="6.5" fill="#d94a3f"/>
  <path d="M22 43v-5h3.2c1.6 0 2.8 1 2.8 2.5s-1.2 2.5-2.8 2.5H22zm10 0v-5h2.6c1.8 0 3.2 1 3.2 2.5S36.4 43 34.6 43H32zm9 0v-5h5" fill="none" stroke="#fff" stroke-linecap="round" stroke-linejoin="round" stroke-width="2.4"/>
</svg>
